<?xml version="1.0" encoding="utf-8"?>
<!-- Generator: Adobe Illustrator 16.0.0, SVG Export Plug-In . SVG Version: 6.00 Build 0)  -->
<!DOCTYPE svg PUBLIC "-//W3C//DTD SVG 1.0//EN" "http://www.w3.org/TR/2001/REC-SVG-20010904/DTD/svg10.dtd">
<svg version="1.0" id="Layer_1" xmlns="http://www.w3.org/2000/svg" xmlns:xlink="http://www.w3.org/1999/xlink" x="0px" y="0px"
	 width="100px" height="100px" viewBox="0 0 100 100" enable-background="new 0 0 100 100" xml:space="preserve">
<path d="M86.668,76.666v-6.667h-5.541c-0.234-0.762-0.533-1.491-0.904-2.175l3.919-3.919l-4.714-4.714l-3.92,3.913
	c-0.69-0.371-1.413-0.671-2.175-0.898v-5.54h-6.666v5.54c-0.762,0.228-1.491,0.527-2.175,0.898l-3.919-3.919l-4.714,4.72
	l3.913,3.919c-0.371,0.684-0.671,1.413-0.898,2.175h-5.541v6.667h5.541c0.228,0.763,0.527,1.485,0.898,2.175l-3.913,3.92
	l4.714,4.713l3.912-3.919c0.69,0.371,1.42,0.671,2.182,0.905V90h6.666v-5.54c0.762-0.234,1.484-0.534,2.175-0.905l3.92,3.919
	l4.714-4.713l-3.919-3.92c0.371-0.689,0.67-1.412,0.904-2.175H86.668z M70,78.333c-2.761,0-5-2.24-5-5.001c0-2.76,2.239-5,5-5
	s5,2.24,5,5C75,76.093,72.761,78.333,70,78.333z"/>
<polygon points="46.666,10 20,20 46.666,30 73.333,20 "/>
<path d="M46.666,37.12l-13.333-5v4.547C33.333,44.03,39.303,50,46.666,50C54.03,50,60,44.03,60,36.667v-4.547L46.666,37.12z"/>
<path d="M46.666,73.332c0-6.529,2.692-12.428,7.019-16.666H30c-5.5,0-10.883,4.414-11.962,9.805L13.333,90h40.352
	C49.358,85.769,46.666,79.87,46.666,73.332z"/>
</svg>
